<svg width="16" height="16" viewBox="0 0 16 16" fill="none" xmlns="http://www.w3.org/2000/svg">
<path fill-rule="evenodd" clip-rule="evenodd" d="M7.16671 5.37492C7.16671 6.36443 6.36455 7.16659 5.37504 7.16659C4.38553 7.16659 3.58337 6.36443 3.58337 5.37492C3.58337 4.38541 4.38553 3.58325 5.37504 3.58325C6.36455 3.58325 7.16671 4.38541 7.16671 5.37492Z" fill="white"/>
<path fill-rule="evenodd" clip-rule="evenodd" d="M11.75 14.6666C13.3608 14.6666 14.6667 13.3607 14.6667 11.7499V4.24992C14.6667 2.63909 13.3608 1.33325 11.75 1.33325H4.25004C2.63921 1.33325 1.33337 2.63909 1.33337 4.24992V11.7499C1.33337 13.3607 2.63921 14.6666 4.25004 14.6666H11.75ZM13.3334 4.24992C13.3334 3.37547 12.6245 2.66659 11.75 2.66659H4.25004C3.37559 2.66659 2.66671 3.37547 2.66671 4.24992V11.7499C2.66671 11.8333 2.67449 11.9149 2.68689 11.9947L5.27869 9.40359L5.32947 9.35799C5.59131 9.14445 5.97732 9.15952 6.22139 9.40359L7.25004 10.4322L10.1537 7.52859L10.2044 7.48299C10.4663 7.26945 10.8523 7.28452 11.0964 7.52859L13.3334 9.76552V4.24992Z" fill="white"/>
</svg>
