<svg width="15" height="15" viewBox="0 0 15 15" fill="none" xmlns="http://www.w3.org/2000/svg">
<path fill-rule="evenodd" clip-rule="evenodd" d="M11.8665 6.7255C11.8665 7.54522 11.5644 8.38492 11.1613 9.15112C10.7542 9.92479 10.2183 10.6709 9.69385 11.3158C9.16789 11.9627 8.64364 12.5197 8.25146 12.9143C8.05509 13.1119 7.89092 13.2696 7.77523 13.3786C7.71735 13.4331 7.67141 13.4759 7.63965 13.505L7.61949 13.5236L7.60319 13.5387L7.59294 13.5478L7.19987 13.8993L6.8068 13.5478L6.79655 13.5387L6.78025 13.5236L6.76009 13.505C6.72833 13.4759 6.68239 13.4331 6.62451 13.3786C6.50882 13.2696 6.34465 13.1119 6.14827 12.9143C5.7561 12.5197 5.23185 11.9627 4.70589 11.3158C4.18149 10.6709 3.64551 9.92479 3.23844 9.15112C2.83531 8.38492 2.53327 7.54522 2.5332 6.7255C2.5332 4.13758 4.61914 2.0332 7.19987 2.0332C9.7806 2.0332 11.8665 4.13758 11.8665 6.7255ZM7.19987 8.44987C8.24584 8.44987 9.08773 7.59766 9.08773 6.55404C9.08768 5.51045 8.24581 4.6582 7.19987 4.6582C6.15401 4.65829 5.31263 5.5105 5.31258 6.55404C5.31258 7.59761 6.15398 8.44978 7.19987 8.44987Z" fill="#C0C0C0"/>
</svg>
