<svg width="1439" height="797" viewBox="0 0 1439 797" fill="none" xmlns="http://www.w3.org/2000/svg">
<path d="M1439 24.6922V793.995C1350.51 774.599 1292.26 777.235 1079.82 786.807C857.593 796.812 716.484 735.301 411.262 776.802C186.688 807.323 54.2835 795.945 0 787.782V27.7623C82.4546 34.4444 218.94 38.6341 369.149 15.3734C611.385 -22.1183 728.186 19.6716 873.267 28.2679C1018.35 36.9004 1079.2 33.8303 1207.06 19.6716C1296.3 9.81102 1390.31 18.5158 1439 24.6922Z" fill="#344EA2"/>
<mask id="mask0_563_1879" style="mask-type:alpha" maskUnits="userSpaceOnUse" x="0" y="0" width="1439" height="797">
<path d="M1439 24.6922V793.995C1350.51 774.599 1292.26 777.235 1079.82 786.807C857.593 796.812 716.484 735.301 411.262 776.802C186.688 807.323 54.2835 795.945 0 787.782V27.7623C82.4546 34.4444 218.94 38.6341 369.149 15.3734C611.385 -22.1183 728.186 19.6716 873.267 28.2679C1018.35 36.9004 1079.2 33.8303 1207.06 19.6716C1296.3 9.81102 1390.31 18.5158 1439 24.6922Z" fill="#344EA2"/>
</mask>
<g mask="url(#mask0_563_1879)">
<mask id="mask1_563_1879" style="mask-type:luminance" maskUnits="userSpaceOnUse" x="-16" y="0" width="1456" height="795">
<path d="M1439.11 25.4181V793.531C1402.6 786.413 1324.31 775.136 1222.7 783.091C1080.28 794.235 938.492 787.42 719.91 765.75C501.34 744.08 342.2 796.708 147.154 794.853C76.254 794.186 23.0333 790.487 -16 786.037V29.6623C29.9572 34.6583 176.196 47.7789 297.625 27.9646C443.754 4.12437 653.036 -13.2162 799.165 13.4131C945.295 40.0302 1101.95 38.7933 1191.12 22.7018C1260.31 10.1996 1386.19 20.2765 1439.11 25.4181Z" fill="white"/>
</mask>
<g mask="url(#mask1_563_1879)">
<path d="M1008.8 998.878C1001.97 968.053 995.144 937.228 988.317 906.403C988.123 905.517 988.014 904.596 987.856 903.699C987.553 902.098 988.183 901.285 989.845 901.298C990.936 901.31 992.039 901.273 993.131 901.298C1031.12 901.904 1069.1 902.522 1107.09 903.116C1120.79 903.335 1134.48 903.553 1148.18 903.638C1157.3 903.686 1165.5 900.8 1172.25 894.64C1182.9 884.915 1186.79 872.764 1182.94 858.868C1179.03 844.753 1169.22 836.41 1154.95 833.378C1151.2 832.578 1147.36 832.433 1143.52 832.336C1092.39 831.171 1041.26 829.971 990.136 828.77C988.875 828.746 987.613 828.601 986.328 828.504C985.285 826.272 987.019 824.975 987.88 823.544C993.434 814.316 999.06 805.124 1004.7 795.957C1007.88 790.779 1010.4 785.383 1011.3 779.283C1013.49 764.21 1006.13 749.55 992.779 742.662C979.416 735.774 963.095 738.151 952.133 748.567C949.199 751.356 946.798 754.57 944.7 758.014C896.487 836.81 848.287 915.619 800.11 994.439C799.286 995.785 797.952 997.01 798.388 998.878C794.375 998.878 790.349 998.878 786.335 998.878C786.287 996.889 787.633 995.506 788.566 993.978C837.422 914.066 886.289 834.179 935.157 754.279C937.255 750.847 939.413 747.464 942.02 744.384C956.765 727.007 981.89 723.139 1001.05 735.289C1020.22 747.452 1027.45 771.741 1018.03 792.537C1014.78 799.716 1010.14 806.106 1006.23 812.897C1005.27 814.558 1003.72 816.001 1003.72 818.463C1005.92 819.203 1008.11 818.948 1010.23 819.009C1056.05 820.137 1101.88 821.264 1147.71 822.344C1156.26 822.55 1164.36 824.32 1171.83 828.576C1189.28 838.52 1198.14 858.674 1193.65 878.173C1189.11 897.829 1172 912.514 1151.82 913.29C1134.66 913.945 1117.49 913.157 1100.32 912.854C1068.74 912.284 1037.14 911.762 1005.55 911.253C1003.93 911.229 1002.26 910.914 1000.43 911.872C1000.96 917.571 1002.63 923.161 1003.86 928.8C1008.62 950.554 1013.47 972.273 1018.27 994.015C1018.62 995.603 1019.17 997.192 1018.7 998.865C1015.37 998.878 1012.08 998.878 1008.8 998.878Z" fill="#28367D" fill-opacity="0.57"/>
<path d="M148.367 998.877C148.27 997.834 147.506 997.313 146.705 996.876C137.126 991.65 131.839 983.246 128.711 973.073C122.393 952.494 115.918 931.965 109.491 911.411C99.2567 878.658 89.0466 845.905 78.7639 813.176C76.3751 805.573 75.0048 797.982 76.9814 790.039C80.5464 775.766 92.3934 765.217 107.078 763.47C120.986 761.809 135.028 769.206 141.807 781.757C143.638 785.152 144.85 788.79 146.002 792.44C148.791 801.316 151.495 810.217 154.32 819.081C155.472 822.719 155.569 822.731 159.341 821.858C169.648 819.469 179.943 817.068 190.237 814.631C194.324 813.661 194.372 813.576 193.257 809.526C191.28 802.311 189.025 795.168 187.23 787.905C182.744 769.752 190.868 752.69 207.117 745.742C223.656 738.66 242.743 745.196 251.534 760.972C253.414 764.343 254.687 767.945 255.851 771.607C271.032 819.263 286.202 866.919 301.444 914.551C304.112 922.882 305.628 931.176 303.118 939.81C299.165 953.428 287.099 963.723 273.64 964.924C258.3 966.294 244.913 959.176 238.305 945.982C236.922 943.23 235.867 940.271 234.909 937.337C229.319 919.972 223.814 902.571 218.248 885.194C216.757 880.537 216.708 880.525 211.809 881.677C202.933 883.775 194.069 885.909 185.205 888.031C181.252 888.977 181.179 889.026 182.137 893.051C187.073 913.824 191.971 934.596 197.052 955.344C199.962 967.24 198.41 978.166 190.807 987.976C188.322 991.177 185.278 993.784 181.834 995.931C180.464 996.791 178.839 997.361 177.966 998.877C168.096 998.877 158.237 998.877 148.367 998.877ZM296.497 929.697C296.691 925.889 295.466 921.876 294.193 917.874C278.805 869.587 263.43 821.288 248.042 773.002C247.157 770.213 246.162 767.484 244.695 764.938C238.705 754.533 226.591 749.028 215.314 751.574C203.552 754.23 195.245 763.664 193.984 775.73C193.524 780.168 194.263 784.449 195.464 788.693C198.034 797.824 200.557 806.955 203.224 816.062C203.916 818.439 203.709 819.639 200.933 820.27C185.29 823.823 169.708 827.594 154.078 831.208C150.234 832.105 150.137 831.996 148.888 828.03C145.42 817.068 142.013 806.094 138.593 795.12C137.672 792.161 136.75 789.202 135.307 786.437C129.705 775.681 118.755 770.128 106.556 771.886C95.5219 773.474 86.67 782.412 84.3782 793.944C83.2262 799.74 84.4631 805.209 86.1486 810.629C102.87 864.239 119.64 917.85 136.398 971.448C137.49 974.94 138.86 978.311 140.921 981.367C151.701 997.325 175.141 997.374 185.921 981.403C190.71 974.309 191.547 966.488 189.643 958.315C186.83 946.237 183.896 934.184 181.01 922.13C178.245 910.61 175.432 899.09 172.703 887.558C171.745 883.508 171.83 883.472 175.747 882.477C179.458 881.544 183.168 880.61 186.891 879.725C197.355 877.263 207.82 874.814 218.297 872.388C221.898 871.552 221.91 871.588 223.208 875.274C223.511 876.135 223.79 877.008 224.069 877.869C230.18 896.992 236.292 916.103 242.379 935.227C243.325 938.197 244.392 941.096 245.968 943.788C252.286 954.531 264.788 959.709 276.526 956.435C288.591 953.089 296.497 942.708 296.497 929.697Z" fill="#28367D" fill-opacity="0.57"/>
<path d="M1451.61 207.591C1428.96 223.622 1406.32 239.665 1383.65 255.659C1380.19 258.097 1380.08 258.024 1378.24 253.416C1366.9 225.126 1355.59 196.823 1344.25 168.532C1343.57 166.835 1342.9 165.137 1342.09 163.5C1336.55 152.417 1324.48 147.578 1313.52 152.041C1302.6 156.479 1297.18 168.399 1301.07 180.186C1303.24 186.758 1305.98 193.149 1308.5 199.612C1317.73 223.246 1326.98 246.856 1336.19 270.49C1336.9 272.333 1337.96 274.116 1337.93 276.42C1333.46 277.062 1329.26 275.462 1324.97 275.037C1320.43 274.589 1315.95 273.631 1311.41 273.23C1298.34 272.066 1288.45 281.44 1287.23 292.766C1285.94 304.819 1294 315.151 1306.6 317.2C1325.5 320.268 1344.46 323.069 1363.4 325.98C1386.3 329.496 1409.2 333.073 1432.11 336.469C1438.6 337.427 1445.02 338.943 1451.61 339.1C1451.61 341.295 1451.61 343.49 1451.61 345.673C1438.08 343.672 1424.55 341.707 1411.03 339.658C1385.78 335.826 1360.55 331.946 1335.31 328.077C1325.39 326.562 1315.45 325.191 1305.57 323.506C1294.27 321.59 1285.96 315.502 1282.13 304.516C1278.55 294.245 1280.39 284.605 1287.56 276.359C1295.08 267.725 1304.9 265.457 1315.89 267.179C1319.8 267.786 1323.72 268.368 1327.64 268.974C1328.22 266.355 1326.91 264.657 1326.22 262.862C1316.36 237.531 1306.43 212.235 1296.51 186.928C1294.16 180.925 1292.46 174.862 1293.49 168.266C1295.35 156.418 1303.75 147.323 1315.61 144.583C1326.56 142.049 1338.33 146.632 1344.97 156.03C1347.09 159.037 1348.53 162.372 1349.89 165.768C1360.04 191.172 1370.2 216.577 1380.37 241.981C1381.11 243.824 1381.6 245.813 1383.34 247.911C1406.08 231.916 1428.84 215.91 1451.59 199.891C1451.61 202.474 1451.61 205.032 1451.61 207.591Z" fill="#28367D" fill-opacity="0.57"/>
<path d="M1451.61 -20.3706C1449.66 -20.5524 1448.14 -19.3641 1446.51 -18.6729C1392.58 4.1366 1338.67 26.9703 1284.76 49.8283C1282.75 50.6771 1280.73 51.5745 1278.85 52.678C1264.09 61.3846 1263.61 81.4778 1277.98 90.8393C1280.12 92.2217 1282.44 93.3252 1284.74 94.4286C1335.26 118.572 1385.81 142.679 1436.33 166.835C1441.18 169.151 1446.14 170.776 1451.6 170.327C1451.6 172.522 1451.6 174.717 1451.6 176.899C1445.05 177.045 1439.03 175.202 1433.18 172.4C1382 147.918 1330.8 123.447 1279.58 99.0366C1271.09 94.9986 1264.73 89.178 1262.01 79.9378C1258.37 67.5326 1263.43 54.4363 1274.55 47.6941C1277.19 46.0934 1280.05 44.8444 1282.9 43.6439C1336.97 20.7253 1391.07 -2.16905 1445.15 -25.0755C1447.33 -25.9971 1449.45 -27.0521 1451.6 -28.0586C1451.61 -25.4878 1451.61 -22.9292 1451.61 -20.3706Z" fill="#28367D" fill-opacity="0.57"/>
<path d="M1451.61 762.149C1426.45 752.351 1414.98 726.34 1424.81 701.432C1425.02 700.923 1425.19 700.402 1425.43 699.917C1435.34 680.042 1442.29 658.918 1451.18 638.606C1451.24 638.461 1451.47 638.4 1451.61 638.291C1451.61 647.058 1451.61 655.826 1451.61 664.593C1450.82 664.872 1450.71 665.587 1450.46 666.266C1446.83 675.955 1443.69 685.826 1438.81 695.018C1436.77 698.862 1434.99 702.888 1433.57 706.998C1427.47 724.691 1434.99 742.916 1451.61 751.162C1451.61 754.849 1451.61 758.499 1451.61 762.149Z" fill="#28367D" fill-opacity="0.57"/>
<path d="M1451.61 124.296C1441.06 119.858 1441.17 119.845 1440.66 108.847C1439.73 88.8265 1438.76 68.7939 1437.52 48.7856C1437.28 44.7718 1438.35 42.3708 1441.92 40.5398C1445.31 38.8057 1448.4 36.4896 1451.61 34.416C1451.61 36.9747 1451.61 39.5333 1451.61 42.0919C1450.98 42.4315 1450.33 42.7467 1449.72 43.1227C1443.78 46.8575 1443.75 46.8697 1444.12 53.8544C1445.09 72.6137 1446.19 91.3609 1446.98 110.132C1447.14 113.819 1447.96 116.462 1451.61 117.711C1451.61 119.918 1451.61 122.101 1451.61 124.296Z" fill="#28367D" fill-opacity="0.57"/>
<path d="M1451.61 291.978C1440.76 290.668 1430.09 288.316 1418.12 286.218C1429.58 277.499 1440.59 269.944 1451.61 262.39C1451.61 264.948 1451.61 267.507 1451.61 270.066C1448.8 271.982 1445.92 273.837 1443.17 275.838C1440.37 277.887 1437.19 279.524 1434.36 282.713C1440.69 283.671 1446.01 285.381 1451.61 285.393C1451.61 287.6 1451.61 289.783 1451.61 291.978Z" fill="#28367D" fill-opacity="0.57"/>
<path d="M1161.91 737.229C1161.92 734.343 1162.72 729.674 1163.79 725.03C1180.08 653.861 1196.37 582.692 1212.63 511.523C1213.74 506.697 1215.07 501.979 1217.22 497.505C1226.88 477.351 1250.19 467.262 1271.64 473.944C1292.9 480.577 1306.47 501.834 1303.01 523.734C1300.68 538.516 1296.51 552.934 1293.41 567.57C1293.3 568.104 1293.1 568.625 1292.98 569.159C1292.02 573.718 1292.04 573.803 1296.67 575.222C1310.09 579.345 1323.51 583.468 1336.96 587.542C1341.63 588.961 1341.69 588.913 1342.89 584.329C1345.5 574.446 1348.01 564.551 1350.66 554.68C1352.29 548.617 1355.11 543.112 1358.98 538.164C1371.44 522.255 1392.95 516.531 1411.74 524.122C1430.37 531.64 1441.77 550.375 1439.91 570.359C1438.99 580.218 1436.16 589.689 1434.04 599.293C1420.97 658.263 1407.83 717.208 1394.71 776.166C1393.91 779.743 1392.86 783.224 1391.42 786.595C1382.73 806.918 1360.57 818.074 1339.22 812.884C1317.29 807.561 1302.77 787.795 1304.45 765.447C1305.25 754.836 1308.43 744.674 1310.62 734.331C1314.19 717.56 1318.05 700.838 1321.79 684.104C1321.88 683.752 1321.99 683.4 1322.06 683.036C1322.93 678.61 1322.94 678.538 1318.72 677.252C1308.44 674.087 1298.13 670.971 1287.84 667.83C1285.57 667.139 1283.26 666.569 1281.06 665.684C1278.27 664.556 1277.12 665.696 1276.36 668.279C1273.06 679.484 1269.66 690.652 1266.32 701.844C1261.49 717.924 1256.69 734.003 1251.85 750.083C1247.21 765.519 1237.97 776.942 1222.54 782.52C1192.72 793.337 1161.41 770.831 1161.91 737.229ZM1171.96 739.181C1171.89 756.218 1183.28 770.794 1199.37 774.262C1216.26 777.9 1232.82 769.448 1239.74 753.502C1241.25 749.998 1242.33 746.299 1243.43 742.625C1252.14 713.813 1260.81 684.989 1269.51 656.165C1270.65 652.393 1270.69 652.381 1274.3 653.473C1287.56 657.499 1300.81 661.537 1314.08 665.575C1320.01 667.381 1325.92 669.285 1331.88 670.971C1333.89 671.541 1334.62 672.547 1334.17 674.5C1333.98 675.385 1333.76 676.282 1333.57 677.167C1328.4 700.316 1323.16 723.453 1318.13 746.627C1316.43 754.448 1313.91 762.172 1314.44 770.345C1315.32 783.599 1321.44 793.749 1333.17 799.934C1345.09 806.215 1357.14 805.584 1368.6 798.442C1377.83 792.682 1382.6 783.878 1384.92 773.474C1395.81 724.508 1406.73 675.542 1417.62 626.577C1421.5 609.127 1425.66 591.714 1429.09 574.179C1431.85 560.173 1427.68 547.986 1416.4 538.977C1405.67 530.403 1393.51 528.9 1380.82 534.15C1369.14 538.989 1362.58 548.314 1359.44 560.27C1357.69 566.976 1355.99 573.706 1354.27 580.412C1352.73 586.415 1351.05 592.405 1349.68 598.444C1349.08 601.148 1347.74 601.669 1345.4 600.833C1344.71 600.59 1344.02 600.36 1343.33 600.141C1323.78 594.2 1304.23 588.258 1284.69 582.304C1279.9 580.849 1279.9 580.788 1281.05 575.768C1283.7 564.211 1286.49 552.691 1289 541.111C1290.54 533.993 1292.76 526.996 1293.08 519.635C1293.83 502.659 1283.13 487.852 1266.97 483.572C1250.73 479.279 1234.19 486.785 1226.4 501.919C1224.46 505.69 1223.33 509.716 1222.4 513.815C1206.73 582.292 1191.04 650.769 1175.44 719.258C1173.95 725.842 1171.81 732.318 1171.96 739.181Z" fill="#28367D" fill-opacity="0.57"/>
<path d="M98.0322 471.81C96.8681 488.398 95.7404 504.053 94.6612 519.708C92.9878 543.937 91.3387 568.153 89.6532 592.381C89.1802 599.123 88.865 605.878 88.0647 612.571C85.7971 631.731 70.2274 646.173 51.2989 646.913C32.2975 647.665 15.7335 634.544 11.8654 615.676C11.0529 611.71 11.0287 607.684 11.2106 603.671C12.5565 572.664 13.9389 541.657 15.297 510.65C16.5581 482.008 17.7949 453.378 19.0682 424.736C20.8628 384.246 22.5725 343.744 24.5612 303.267C25.4949 284.156 40.3977 268.453 58.538 266.803C78.8247 264.96 96.092 277.086 100.663 296.428C101.718 300.902 101.694 305.474 101.609 310.046C101.5 315.502 101.585 320.971 101.585 326.695C103.756 327.228 105.417 325.507 107.211 324.573C140.085 307.499 172.922 290.353 205.759 273.218C210.937 270.514 216.127 267.883 221.923 266.658C239.699 262.923 257.367 271.654 265.03 288.061C272.658 304.383 267.928 323.688 253.583 334.832C249.958 337.645 245.932 339.803 241.906 341.938C209.021 359.387 176.135 376.825 143.262 394.299C141.346 395.317 139.248 396.069 137.66 397.67C137.842 399.501 139.285 400.471 140.34 401.672C180.998 447.848 221.692 494.013 262.351 540.19C264.521 542.651 266.716 545.125 268.583 547.817C280.079 564.26 277.326 586.403 262.278 599.329C247.181 612.292 224.954 611.674 210.391 597.838C208.281 595.825 206.317 593.654 204.389 591.459C170.582 553.104 136.799 514.749 102.992 476.393C101.682 474.95 100.579 473.277 98.0322 471.81ZM123.994 395.523C125.497 393.777 127.644 393.086 129.56 392.068C166.131 372.605 202.715 353.179 239.323 333.765C243.858 331.364 248.248 328.793 251.801 324.985C260.471 315.696 262.314 301.581 256.275 290.377C250.079 278.857 237.298 272.83 224.421 275.158C219.655 276.019 215.411 278.02 211.191 280.215C173.31 299.944 135.441 319.698 97.5471 339.391C95.8374 340.276 94.2974 341.828 91.7146 341.331C91.7146 340.276 91.6782 339.221 91.7267 338.166C92.139 329.047 92.527 319.916 92.9878 310.797C93.1575 307.317 93.1212 303.861 92.5512 300.417C89.7138 283.234 72.7254 272.09 55.8825 276.371C42.9805 279.645 33.9952 290.268 33.1827 304.007C32.1278 322.051 31.4608 340.119 30.6484 358.187C28.9629 395.584 27.2774 432.981 25.6162 470.391C23.8943 509.256 22.1724 548.108 20.499 586.973C20.1474 594.988 19.3107 603.028 19.9897 611.056C21.1538 624.879 31.6427 635.89 45.3935 638.085C58.3076 640.158 71.537 632.786 77.0907 620.502C79.0793 616.088 79.819 611.419 80.1586 606.678C81.7349 584.269 83.2385 561.859 84.7664 539.45C86.6823 511.208 88.5861 482.978 90.5383 454.736C90.6111 453.596 90.1624 452.105 91.8601 451.547C93.4486 452.274 94.2731 453.754 95.3523 454.966C133.403 498.112 171.442 541.293 209.494 584.438C211.907 587.179 214.308 589.968 217.048 592.357C224.687 598.99 233.6 601.597 243.531 599.317C264.473 594.503 273.591 571.099 261.574 553.104C259.355 549.782 256.603 546.798 253.947 543.791C211.822 495.953 169.672 448.127 127.547 400.289C126.237 398.822 124.539 397.597 123.994 395.523Z" fill="#28367D" fill-opacity="0.57"/>
<path d="M1051.48 349.626C1087.31 352.5 1121.52 355.216 1155.73 357.981C1187.21 360.515 1218.67 363.11 1250.15 365.645C1277.45 367.852 1304.74 369.974 1332.03 372.229C1338.57 372.775 1345.06 373.66 1351.27 376.11C1370.1 383.531 1382.16 402.933 1379.98 422.577C1377.67 443.544 1362.46 459.744 1342.08 463.116C1336.44 464.049 1330.83 463.94 1325.16 463.504C1302.78 461.794 1280.38 460.145 1257.99 458.495C1241.42 457.283 1224.85 456.094 1208.27 454.918C1203.75 454.591 1203.67 454.603 1202.96 458.908C1197.79 489.684 1192.66 520.473 1187.52 551.249C1181.54 587.07 1175.57 622.891 1169.62 658.724C1166.88 675.264 1158.89 688.118 1143.44 695.503C1113.8 709.679 1079.42 688.385 1078.69 655.547C1078.52 647.616 1080.23 639.941 1081.52 632.204C1090.15 580.17 1098.88 528.161 1107.59 476.139C1109.03 467.505 1110.56 458.871 1111.9 450.213C1112.56 446.042 1112.43 445.945 1108.16 445.593C1088.87 444.029 1069.59 442.489 1050.29 440.973C1044.46 440.512 1038.65 439.979 1033.04 438.196C1012.48 431.636 999.17 411.591 1001.39 390.528C1003.67 368.81 1020.45 352.075 1042.17 349.808C1045.83 349.432 1049.46 349.371 1051.48 349.626ZM1050.96 359.861C1048.56 359.861 1047.27 359.824 1046 359.861C1028.5 360.406 1014.09 373.272 1011.84 390.358C1009.54 407.868 1020.11 424.045 1037.09 429.053C1040.8 430.144 1044.59 430.654 1048.41 430.969C1072.07 432.921 1095.73 434.801 1119.39 436.68C1124.16 437.056 1124.36 437.214 1123.57 441.919C1119.87 464.061 1116.15 486.192 1112.44 508.334C1104.96 552.971 1097.46 597.608 1089.99 642.257C1089.21 646.937 1088.51 651.618 1088.76 656.408C1089.81 677.896 1110.27 693.745 1131.19 688.967C1146.97 685.366 1156.21 674.985 1158.99 659.367C1164.73 627.026 1169.99 594.6 1175.41 562.199C1181.74 524.402 1188.02 486.592 1194.34 448.782C1195.1 444.186 1195.17 444.041 1199.93 444.368C1213.59 445.314 1227.23 446.406 1240.9 447.412C1270.21 449.583 1299.53 451.729 1328.84 453.924C1333.25 454.251 1337.59 453.924 1341.91 453.002C1361.48 448.843 1373.68 428.92 1368.53 409.554C1364.54 394.566 1351.67 384.186 1335.37 382.888C1324.27 382.003 1313.17 381.178 1302.06 380.269C1281.5 378.608 1260.94 376.898 1240.38 375.224C1224.91 373.963 1209.43 372.751 1193.97 371.502C1173.41 369.828 1152.85 368.131 1132.29 366.445C1116.28 365.123 1100.26 363.789 1084.26 362.48C1072.77 361.57 1061.3 360.685 1050.96 359.861Z" fill="#28367D" fill-opacity="0.57"/>
<path d="M600.227 437.723C587.798 437.505 575.405 436.777 563.364 433.333C549.649 429.417 538.603 421.789 531.23 409.396C517.661 386.599 529.654 358.017 555.47 351.881C566.068 349.359 576.217 351.081 585.312 357.217C588.198 359.169 591.096 359.957 594.479 360.079C603.864 360.406 613.08 360.261 621.677 355.628C626.916 352.803 631.451 349.25 634.931 344.424C636.895 341.707 636.835 341.186 634.106 339.112C630.748 336.542 626.976 334.723 622.975 333.352C610.327 328.987 597.304 326.331 584.038 324.803C567.183 322.875 550.231 321.687 533.764 317.2C525.64 314.993 517.77 312.095 510.325 308.13C468.854 286.012 450.908 241.132 465.799 196.289C473.596 172.801 488.535 154.442 507.948 139.551C533.437 119.991 562.466 111.369 594.43 112.497C603.937 112.837 613.274 114.558 622.308 117.748C634.179 121.931 643.977 129.025 651.677 138.908C661.099 151.01 663.184 164.446 657.146 178.573C651.18 192.53 640.024 200.146 625.048 201.722C614.802 202.801 605.465 199.721 597.547 193.137C594.661 190.736 591.775 189.778 588.113 189.838C568.796 190.154 553.748 198.375 542.653 214.067C540.955 216.467 539.682 219.099 538.906 221.949C536.699 229.976 539.257 235.857 546.703 239.701C552.972 242.939 559.859 243.958 566.723 244.904C583.165 247.159 599.79 248.105 616.075 251.5C630.02 254.411 643.819 257.903 656.927 263.566C674.51 271.157 689.631 281.998 700.847 297.822C716.842 320.377 719.534 344.533 708.996 369.974C700.872 389.594 687.291 404.946 669.878 416.842C648.936 431.138 625.643 438.05 600.227 437.723ZM601.585 429.235C605.72 429.138 612.086 429.162 618.452 428.168C650.695 423.135 676.365 407.456 694.178 380.123C712.003 352.779 711.797 322.706 688.77 296.343C678.839 284.981 666.568 276.868 652.708 271.193C636.422 264.536 619.41 260.389 602.009 257.988C589.725 256.29 577.369 255.077 565.061 253.537C558.538 252.725 552.05 251.585 545.939 249.063C540.652 246.88 535.814 244.018 532.722 238.889C527.398 230.037 528.55 221.051 533.485 212.878C546.836 190.76 566.88 180.562 592.636 181.495C596.019 181.617 598.82 182.878 601.391 185.303C606.593 190.214 612.971 193.015 620.149 193.258C632.336 193.67 641.903 188.613 647.821 177.942C653.86 167.065 652.999 156.054 645.966 145.868C639.005 135.779 629.377 129.049 617.676 125.327C602.033 120.343 586.003 119.7 570.009 122.368C530.369 128.977 499.691 149.324 480.289 184.757C465.896 211.047 464.659 238.404 478.616 265.555C489.565 286.86 507.524 299.884 529.884 307.342C546.654 312.932 564.152 314.266 581.565 316.085C596.492 317.637 611.152 320.438 625.388 325.204C630.784 327.01 635.84 329.545 640.315 333.11C647.227 338.627 647.748 342.217 642.437 349.201C633.294 361.206 621.132 367.839 606.047 368.761C601.136 369.064 596.201 368.64 591.266 368.652C588.016 368.664 585.445 367.645 582.899 365.402C576.132 359.448 568.093 356.744 559.071 358.223C538.409 361.594 527.544 382.5 536.59 401.514C542.713 414.392 553.214 422.056 566.795 425.645C577.43 428.483 588.355 429.247 601.585 429.235Z" fill="#28367D" fill-opacity="0.57"/>
<path d="M376.625 147.19C376.698 166.289 364.548 181.653 346.783 185.825C329.455 189.887 311.667 181.496 303.627 165.465C301.978 162.178 300.826 158.722 299.795 155.23C294.278 136.507 288.785 117.772 283.28 99.0491C282.916 97.8244 282.443 96.6239 282.213 95.3749C281.716 92.7435 280.273 92.3676 277.835 92.9133C269.117 94.8898 260.35 96.6118 251.631 98.5883C248.527 99.2917 244.343 98.6611 242.706 101.511C241.239 104.057 243.301 107.501 243.931 110.508C248.43 131.56 253.038 152.599 257.621 173.638C259.283 181.241 259.671 188.808 257.367 196.374C252.698 211.666 239.299 222.446 223.184 223.792C208.063 225.053 192.917 216.383 185.933 202.474C184.041 198.703 182.804 194.689 181.64 190.663C164.834 132.275 148.064 73.875 131.221 15.4871C128.759 6.95026 127.219 -1.56237 129.511 -10.3903C133.622 -26.2635 146.972 -37.7471 162.991 -39.178C179.943 -40.6817 195.124 -31.9144 202.036 -16.6474C204.461 -11.2998 205.747 -5.58828 207.408 0.0140457C209.748 7.88398 212.016 15.7782 214.162 23.7087C214.902 26.4372 216.272 27.0556 218.928 26.4735C230.678 23.8906 242.476 21.4654 254.238 18.9189C258.24 18.0579 258.252 17.973 257.209 13.7773C255.087 5.27684 252.662 -3.15091 250.831 -11.712C246.32 -32.7511 258.288 -52.4562 278.66 -57.9252C296.558 -62.7272 315.462 -53.9114 323.38 -36.8983C324.908 -33.6121 326.036 -30.0954 327.054 -26.6031C342.636 26.2552 358.169 79.1257 373.715 131.984C375.267 137.259 376.795 142.534 376.625 147.19ZM288.555 -50.1765C272.912 -50.2129 260.192 -38.6323 258.749 -23.0622C258.325 -18.4542 258.943 -13.9675 260.095 -9.51719C262.702 0.5476 265.127 10.6609 267.953 20.6651C269.02 24.4242 268.329 24.8365 265.164 25.5034C248.042 29.1413 230.932 32.8034 213.798 36.3928C209.19 37.3629 209.118 37.2659 207.784 32.6337C204.389 20.8955 201.054 9.15724 197.683 -2.58097C196.519 -6.60689 195.415 -10.6571 193.427 -14.3919C187.412 -25.6694 175.771 -31.7204 162.845 -30.2531C151.144 -28.9313 140.946 -19.8124 137.951 -7.83164C136.265 -1.07732 137.296 5.51936 139.2 12.1282C154.187 63.9921 169.09 115.893 184.029 167.769C186.454 176.184 188.685 184.66 191.329 193.003C195.488 206.148 206.244 214.661 218.915 215.243C238.256 216.128 253.389 198.909 249.885 179.652C247.933 168.896 245.386 158.237 243.082 147.542C239.529 130.953 236.001 114.365 232.339 97.8001C231.817 95.4598 231.745 94.1501 234.631 93.5559C251.231 90.1363 267.807 86.5591 284.371 82.9697C286.348 82.5453 287.548 82.9819 288.033 85.007C288.251 85.8922 288.53 86.7653 288.785 87.6384C295.236 109.502 301.699 131.366 308.138 153.241C309.072 156.406 310.127 159.511 311.703 162.409C317.802 173.613 329.589 179.592 342.43 178.003C354.156 176.548 364.293 167.344 367.131 155.351C368.683 148.779 367.725 142.364 365.833 135.937C353.78 95.1809 341.836 54.4003 329.843 13.6197C325.733 -0.374001 321.792 -14.4162 317.402 -28.325C313.097 -42.0034 302.039 -50.1401 288.555 -50.1765Z" fill="#28367D" fill-opacity="0.57"/>
<path d="M494.537 525.662C483.77 525.565 474.639 521.588 467.121 513.936C462.246 508.976 458.305 503.241 454.013 497.784C442.602 483.293 431.192 468.814 419.999 454.178C417.805 451.304 415.646 450.37 412.154 450.94C384.434 455.451 356.702 459.865 328.946 464.218C326.036 464.679 324.593 466.074 323.647 468.826C321.331 475.544 319.233 482.371 316.056 488.762C310.139 500.658 300.693 507.994 287.536 510.371C261.489 515.088 238.232 491.636 243.204 465.577C243.919 461.83 245.01 458.119 246.271 454.517C271.699 382.051 297.176 309.609 322.677 237.179C323.647 234.426 324.69 231.685 325.999 229.09C338.78 203.686 373.23 200.169 390.824 222.482C392.85 225.052 394.571 227.878 396.172 230.74C439.74 308.821 483.273 386.926 526.841 465.019C530.624 471.809 533.34 478.831 533.389 486.773C533.498 508.54 516.328 525.808 494.537 525.662ZM524.61 487.101C524.804 480.213 522.063 474.295 518.826 468.487C475.694 391.17 432.586 313.829 389.454 236.512C388.12 234.123 386.762 231.722 385.174 229.515C371.556 210.683 344.164 212.756 333.554 233.444C332.232 236.027 331.238 238.804 330.268 241.544C304.912 313.671 279.581 385.81 254.274 457.961C253.304 460.714 252.371 463.503 251.801 466.353C247.375 488.435 267.577 507.339 289.185 501.264C299.165 498.451 305.919 491.842 309.617 482.214C312.37 475.059 314.977 467.856 317.475 460.617C318.372 458.034 319.839 456.955 322.556 456.603C331.42 455.463 340.247 454.105 349.075 452.711C371.229 449.218 393.407 445.787 415.513 441.991C419.417 441.324 421.467 442.428 423.71 445.326C438.467 464.388 453.37 483.329 468.212 502.331C470.358 505.072 472.517 507.8 475.233 509.983C485.128 517.926 496.102 519.587 507.536 514.263C518.862 508.989 524.282 499.494 524.61 487.101Z" fill="#28367D" fill-opacity="0.57"/>
<path d="M400.003 621.617C418.071 621.157 432.743 632.216 436.466 648.368C440.346 665.187 432.089 682.127 415.828 688.627C403.314 693.635 390.327 697.467 377.546 701.796C369.943 704.367 362.365 707.011 354.701 709.363C351.73 710.272 350.348 711.631 351.015 714.796C351.282 716.032 351.197 717.342 351.33 718.615C351.5 720.119 352.3 720.919 353.901 720.701C354.98 720.555 356.083 720.458 357.15 720.24C370.938 717.56 384.688 714.735 398.5 712.188C411.948 709.715 424.001 712.431 433.459 722.908C449.829 741.025 443.111 769.57 420.351 778.774C413.221 781.648 405.654 783.066 398.269 785.079C386.483 788.293 374.648 791.336 362.85 794.501C358.618 795.641 358.593 795.714 358.909 800.067C359.175 803.705 359.648 807.331 359.867 810.981C359.988 813.139 361.031 813.831 363.032 813.661C368.124 813.224 373.229 812.873 378.31 812.436C393.225 811.139 408.128 809.744 423.043 808.544C429.033 808.059 435.035 807.634 441.025 809.162C456.983 813.236 467.763 827.218 467.508 843.758C467.254 859.898 456.049 873.589 440.262 877.239C434.878 878.476 429.397 878.633 423.952 879.106C399.761 881.228 375.558 883.071 351.366 885.048C345.364 885.533 339.362 886.103 333.372 886.721C312.563 888.831 295.114 875.08 293.186 854.514C291.198 833.233 287.402 812.218 284.868 791.021C281.679 764.38 277.968 737.799 274.488 711.194C272.948 699.432 271.214 687.681 269.977 675.895C267.564 652.891 280.199 637.188 303.251 634.132C333.275 630.142 363.286 626.153 393.322 622.187C395.856 621.836 398.415 621.751 400.003 621.617ZM399.543 629.487C393.649 630.239 385.865 631.209 378.092 632.228C362.716 634.253 347.341 636.29 331.977 638.352C321.67 639.734 311.327 640.91 301.08 642.644C289.16 644.657 281.363 651.691 278.174 663.429C276.804 668.449 277.41 673.578 278.089 678.671C280.83 699.298 283.595 719.925 286.287 740.552C288.675 758.826 291.125 777.1 293.295 795.411C295.575 814.607 299.273 833.608 300.838 852.913C302.22 869.878 316.225 880.816 333.081 879.118C348.153 877.59 363.262 876.451 378.347 875.189C396.899 873.637 415.464 872.243 434.005 870.557C448.337 869.248 459.069 858.116 459.627 844.401C460.269 828.649 447.658 815.844 431.349 816.001C425.516 816.062 419.696 816.753 413.876 817.25C394.959 818.863 376.055 820.549 357.15 822.149C353.282 822.477 353.1 822.392 352.712 818.536C351.851 809.999 351.233 801.438 350.396 792.901C350.166 790.572 351.16 789.711 353.27 789.202C358.23 787.99 363.129 786.534 368.052 785.225C383.379 781.138 398.779 777.318 414.009 772.941C428.863 768.672 437.194 754.509 433.75 740.333C430.185 725.661 416.41 717.003 401.095 719.816C396.972 720.58 392.861 721.404 388.738 722.193C375.315 724.8 361.892 727.431 348.456 730.002C344.928 730.681 344.746 730.56 344.346 727.007C343.715 721.562 343.169 716.117 342.684 710.66C342.175 704.961 342.042 705.616 347.256 703.894C359.2 699.941 371.12 695.939 383.051 691.938C392.728 688.688 402.538 685.765 412.008 682.03C424.837 676.962 431.47 664.205 428.839 651.036C426.329 638.437 414.918 629.451 399.543 629.487Z" fill="#28367D" fill-opacity="0.57"/>
<path d="M587.24 658.202C588.44 660.555 590.126 661.731 591.556 663.113C625.266 695.515 658.989 727.916 692.747 760.269C698.265 765.556 702.909 771.279 704.255 779.064C706.401 791.397 702.533 801.607 692.48 808.883C682.222 816.316 671.139 816.607 659.983 810.508C656.576 808.64 653.835 805.936 651.07 803.28C623.011 776.336 594.952 749.379 566.868 722.447C565.486 721.125 564.297 719.464 561.605 718.445C561.605 720.919 561.581 722.847 561.605 724.775C562.054 756.74 562.515 788.693 562.963 820.657C563.036 825.411 563.085 830.14 561.69 834.785C557.713 848.051 544.884 857.133 531.388 856.163C517.031 855.132 505.426 844.437 503.595 830.334C503.049 826.175 502.904 821.967 502.734 817.771C499.836 743.862 496.962 669.94 494.052 596.031C493.882 591.799 494.1 587.615 495.264 583.541C499.133 570.068 512.52 560.707 525.967 561.992C541.161 563.448 552.329 574.567 553.711 589.737C554.039 593.375 553.954 597.037 554.184 600.687C554.293 602.446 553.808 604.374 555.239 605.926C557.507 605.538 559.156 603.986 560.975 602.834C585.069 587.639 609.151 572.421 633.209 557.166C639.163 553.395 645.408 550.448 652.647 550.703C665.343 551.127 674.752 557.033 679.76 568.674C684.768 580.303 682.683 591.192 674.292 600.76C671.491 603.949 667.925 606.217 664.397 608.497C640.436 623.897 616.463 639.297 592.502 654.71C590.841 655.777 589.204 656.905 587.24 658.202ZM576.872 657.499C578.363 655.716 580.522 654.698 582.474 653.449C608.872 636.448 635.283 619.471 661.693 602.494C664.457 600.712 667.174 598.868 669.405 596.407C676.232 588.864 677.517 578.205 672.655 569.438C667.671 560.477 657.764 556.05 647.53 558.1C643.298 558.949 639.721 561.071 636.168 563.326C609.018 580.497 581.868 597.668 554.682 614.79C552.887 615.918 551.298 617.591 549.067 617.7C548.012 616.706 548.267 615.554 548.218 614.499C547.915 607.939 547.6 601.366 547.406 594.794C547.309 591.677 547.018 588.585 546.145 585.602C543.028 574.919 533.316 568.286 521.978 569.038C511.356 569.741 502.625 578.06 501.097 588.925C500.685 591.835 500.794 594.745 500.915 597.668C502.104 627.583 503.292 657.499 504.456 687.426C506.105 729.929 507.718 772.443 509.355 814.946C509.525 819.324 509.646 823.713 510.046 828.067C511.174 840.423 521.553 849.857 533.582 849.578C545.769 849.287 555.591 839.659 556.282 827.23C556.403 825.047 556.343 822.852 556.319 820.657C555.833 783.418 555.336 746.166 554.876 708.926C554.851 707.059 554.378 705.046 555.555 703.045C558.125 704.488 559.738 706.477 561.545 708.211C592.769 738.175 623.969 768.163 655.193 798.127C657.036 799.897 658.892 801.68 660.941 803.196C670.751 810.435 683.665 809.392 691.801 800.795C699.877 792.27 700.229 779.089 692.517 769.788C690.662 767.544 688.491 765.556 686.393 763.531C651.24 729.747 616.075 695.987 580.922 662.204C579.479 660.846 577.709 659.742 576.872 657.499Z" fill="#28367D" fill-opacity="0.57"/>
<path d="M519.044 -123.492C513.672 -117.417 507.67 -114.531 501.219 -112.494C488.172 -108.383 475.088 -104.394 462.016 -100.356C453.831 -97.8212 445.634 -95.311 437.461 -92.7524C433.193 -91.4185 433.205 -91.3821 433.302 -87.2107C433.472 -79.559 433.46 -79.6439 441.038 -80.9657C456.85 -83.7183 472.65 -86.568 488.511 -89.0296C508.798 -92.1703 527.617 -79.3165 532.262 -59.5022C536.833 -39.9668 525.847 -20.201 506.3 -14.1622C494.465 -10.5122 482.266 -8.06265 470.225 -5.10384C461.191 -2.88474 452.158 -0.641396 443.087 1.40794C440.662 1.95363 439.656 2.99648 439.862 5.49449C440.262 10.2237 440.565 14.9651 440.796 19.7065C440.905 21.9256 442.105 22.4591 444.033 22.2894C446.58 22.0711 449.126 21.8286 451.673 21.683C473.184 20.4219 494.695 19.1608 516.207 17.9239C522.282 17.5722 528.236 18.2149 533.959 20.4462C550.717 26.9822 560.745 44.25 558.138 62.1605C555.628 79.3676 541.283 93.2037 523.785 94.6709C507.779 96.0169 491.725 96.8658 475.694 97.8723C453.831 99.2425 431.944 100.346 410.093 101.935C383.949 103.826 367.591 85.4186 366.258 66.3076C366.233 65.9438 366.149 65.5801 366.124 65.2163C363.748 35.1917 359.394 5.37323 356.521 -24.6029C354.12 -49.6799 351.088 -74.6964 348.336 -99.7371C347.584 -106.637 346.977 -113.549 346.08 -120.424C345.704 -123.323 346.965 -123.832 349.391 -123.88C353.974 -123.977 354.301 -123.953 354.859 -119.285C356.242 -107.68 357.454 -96.0628 358.715 -84.4459C361.468 -59.0414 364.208 -33.6248 366.949 -8.22029C368.513 6.29483 369.786 20.8585 371.775 35.3251C373.024 44.3834 374.018 53.4174 374.455 62.5485C374.588 65.2648 375.037 68.0174 375.716 70.6488C379.257 84.206 390.873 93.5189 404.951 93.5189C414.252 93.5189 423.553 92.7186 432.841 92.1608C448.872 91.215 464.902 90.1721 480.945 89.1899C493.883 88.4017 506.833 87.7347 519.76 86.8253C527.605 86.2796 534.82 83.8301 540.519 78.1065C549.492 69.0967 552.003 58.3771 547.928 46.3963C544.072 35.0583 533.304 27.1641 521.372 26.7033C509.853 26.2668 498.406 27.7947 486.923 28.3889C470.153 29.2377 453.382 30.2442 436.624 31.3598C433.629 31.5538 432.732 30.4624 432.586 27.7583C432.077 18.2756 431.531 8.80496 430.865 -0.665642C430.671 -3.38192 431.689 -4.47328 434.357 -5.09172C449.623 -8.64471 464.841 -12.3917 480.084 -16.066C486.462 -17.606 492.864 -19.049 499.23 -20.6497C510.823 -23.5479 519.408 -30.0354 523.131 -41.713C529.982 -63.225 511.49 -83.9366 488.826 -80.2138C469.389 -77.0125 449.963 -73.6778 430.537 -70.3916C425.966 -69.6155 425.954 -69.5912 425.638 -74.0173C425.238 -79.6682 424.862 -85.3069 424.474 -90.9577C424.026 -97.3725 424.026 -97.3725 430.489 -99.3612C452.618 -106.213 474.736 -113.052 496.866 -119.915C498.6 -120.449 500.479 -120.813 502.019 -121.71C507.1 -124.657 512.508 -123.905 519.044 -123.492Z" fill="#28367D" fill-opacity="0.57"/>
<path d="M935.533 660.057C927.518 659.924 919.697 659.487 912.118 657.05C903.496 654.273 896.439 649.338 891.213 641.892C883.295 630.603 883.913 615.663 892.704 605.283C901.496 594.903 916.095 591.835 928.536 597.777C940.747 603.61 960.294 597.365 967.012 585.578C968.2 583.504 967.861 582.34 965.884 581.164C962.38 579.078 958.584 577.829 954.656 576.968C945.003 574.846 935.242 573.621 925.335 573.5C913.646 573.367 901.932 573.197 890.364 571.366C868.149 567.849 849.342 558.367 836.683 539.05C822.677 517.671 820.931 494.57 830.765 471.531C845.668 436.595 872.842 416.429 910.335 410.281C921.273 408.486 932.174 408.753 942.942 411.542C952.4 413.979 960.379 418.939 966.976 426.093C977.404 437.395 977.938 454.142 968.346 465.649C958.669 477.266 942.214 479.91 929.276 471.603C926.281 469.675 923.419 468.936 920.024 469.372C905.17 471.252 894.22 478.818 887.09 491.939C885.853 494.207 885.162 496.668 884.98 499.251C884.689 503.689 886.484 507.073 890.316 509.28C893.529 511.135 897.094 511.875 900.744 512.372C908.189 513.378 915.683 513.342 923.165 513.463C940.202 513.754 957.069 515.5 973.548 519.987C988.814 524.146 1002.41 531.337 1013.18 543.197C1029.34 561.01 1033.38 581.516 1024.53 603.695C1013.33 631.767 991.955 648.841 963.083 656.771C954.037 659.293 944.712 659.766 935.533 660.057ZM935.351 653.582C946.895 653.352 958.342 652.345 969.243 648.222C993.022 639.237 1010.52 623.533 1019.19 599.305C1025.67 581.2 1022.43 564.43 1009.9 549.624C1000.64 538.674 988.79 531.774 975.27 527.578C963.192 523.831 950.763 521.782 938.152 521.042C927.579 520.424 916.98 520.314 906.407 519.793C899.834 519.478 893.274 518.738 887.345 515.488C881.197 512.117 878.068 506.939 878.25 499.845C878.347 495.929 879.305 492.254 881.209 488.847C890.182 472.804 903.727 463.915 922.195 462.739C925.748 462.509 928.779 463.273 931.883 465.455C941.863 472.489 954.862 470.864 962.635 462.036C970.577 453.026 970.298 439.857 961.907 430.617C956.244 424.372 949.308 420.103 941.123 418.042C931.992 415.738 922.765 415.35 913.415 416.671C877.656 421.74 851.719 440.463 837.204 473.459C827.709 495.043 829.334 516.652 842.855 536.588C854.241 553.371 870.89 561.665 890.388 564.878C902.126 566.819 914.022 566.94 925.893 567.073C937.255 567.207 948.447 568.686 959.458 571.499C963.556 572.542 967.412 574.191 970.88 576.641C976.058 580.303 976.664 582.765 973.487 588.052C970.832 592.478 967.461 596.249 963.217 599.293C954.959 605.235 945.61 606.86 935.715 606.811C932.696 606.799 930.173 606.168 927.579 604.422C918.436 598.274 907.171 599.123 899.228 606.18C891.225 613.299 889.236 624.843 894.463 634.701C899.083 643.408 906.37 648.877 915.804 651.423C922.195 653.158 928.743 653.667 935.351 653.582Z" fill="#28367D" fill-opacity="0.57"/>
<path d="M-45.3087 821.749C-46.8244 815.091 -46.7032 814.788 -40.9797 812.048C-32.1036 807.791 -23.2031 803.559 -14.327 799.291C-8.5914 796.538 -9.28257 796.465 -7.19691 801.983C3.40114 829.958 13.9992 857.934 24.5851 885.921C32.273 906.22 39.9487 926.532 47.6365 946.831C48.2792 948.541 48.9461 950.238 49.6979 951.9C56.1004 965.93 70.9546 972.369 84.6812 967.07C98.4198 961.771 105.186 947.146 100.481 932.413C98.6017 926.507 96.2372 920.76 94.0424 914.951C77.0055 869.902 59.9686 824.853 42.9195 779.804C42.7255 779.295 42.483 778.798 42.3011 778.288C40.7247 773.983 40.7126 773.947 44.993 771.861C73.1858 758.074 101.379 744.311 129.571 730.535C132.033 729.335 134.531 728.195 136.871 726.788C147.215 720.531 152.501 708.999 150.246 697.855C147.869 686.08 138.896 677.75 126.54 675.991C120.344 675.106 114.632 676.889 109.115 679.532C90.8533 688.299 72.6038 697.055 54.33 705.785C23.227 720.664 -7.88809 735.531 -38.9911 750.398C-39.4882 750.628 -39.949 750.98 -40.4704 751.101C-42.2044 751.538 -43.987 754.036 -45.6725 751.853C-47.2973 749.755 -45.8058 744.929 -43.4777 743.789C-34.6257 739.472 -25.7011 735.276 -16.8249 731.02C22.9845 711.933 62.7939 692.835 102.603 673.748C109.212 670.583 115.881 667.77 123.448 667.806C138.702 667.867 152.029 677.24 156.867 691.549C161.754 706.004 156.649 721.962 144.244 731.057C140.836 733.555 137.065 735.398 133.294 737.229C108.86 749.149 84.4265 761.069 59.9928 772.989C58.3558 773.789 56.6946 774.553 55.0697 775.366C50.5588 777.609 50.5225 777.633 52.2565 782.217C59.6169 801.668 67.0016 821.118 74.3742 840.569C85.2269 869.235 96.0432 897.914 106.92 926.568C109.77 934.074 111.176 941.69 109.054 949.608C105.21 964.014 96.0432 973.157 81.3466 975.861C66.3953 978.614 54.524 973.048 45.7691 960.764C43.5258 957.623 42.1677 954.022 40.8096 950.42C23.6393 905.02 6.48112 859.619 -10.7619 814.255C-13.6964 806.542 -12.3868 806.833 -19.9413 810.399C-26.7075 813.6 -33.4253 816.886 -40.2037 820.051C-41.8407 820.839 -43.32 822.137 -45.3087 821.749Z" fill="#28367D" fill-opacity="0.57"/>
<path d="M690.747 44.3474C704.158 44.3232 715.945 41.813 727.755 39.4969C738.511 37.3869 749.291 35.3497 760.313 35.7863C777.362 36.4653 793.114 41.0976 806.101 52.666C828.388 72.5288 834.56 97.521 827.539 125.787C818.081 163.815 785.026 193.076 746.247 198.448C732.363 200.376 719.243 197.938 707.941 189.098C698.823 181.98 694.918 172.425 697.004 161.038C699.162 149.227 706.401 141.467 718.006 138.168C724.117 136.434 730.326 136.762 736.243 139.235C738.547 140.205 740.681 140.521 743.082 139.732C757.973 134.882 767.504 124.987 771.457 109.793C771.93 107.998 772.027 106.191 771.821 104.36C771.202 98.7336 768.122 95.4959 762.472 94.5501C755.099 93.3253 747.896 94.8047 740.778 96.3084C721.438 100.395 702.012 103.402 682.15 102.372C670.339 101.765 659.074 98.9883 648.537 93.5557C621.399 79.562 610.013 52.6781 619.362 23.3932C629.366 -7.95311 651.047 -27.4279 682.356 -36.5711C689.195 -38.5598 696.155 -40.0634 703.261 -40.7182C715.011 -41.7853 725.754 -39.1054 734.897 -31.3204C744.065 -23.5111 747.484 -11.3363 743.786 -0.058918C740.099 11.17 730.035 19.0035 718.139 19.9494C714.623 20.2283 711.191 19.6705 707.881 18.6398C705.662 17.9486 703.673 18.1305 701.466 18.6519C694.057 20.3981 687.194 23.0658 681.822 28.7773C679.155 31.6148 677.202 34.8526 675.735 38.4419C674.729 40.8793 675.565 42.1889 677.954 42.9408C682.55 44.3838 687.279 44.4687 690.747 44.3474ZM690.25 50.7622C685.29 51.0047 678.948 50.4954 672.995 47.767C667.89 45.4267 667.113 43.5713 668.738 38.26C670.594 32.1969 673.904 27.0554 678.488 22.6657C684.648 16.7602 692.275 14.0197 700.351 12.0431C703.309 11.3155 705.965 11.2913 708.827 12.5281C714.053 14.7715 719.473 14.8321 724.845 12.904C739.105 7.77464 744.271 -9.60227 735.043 -21.8377C728.689 -30.2533 719.91 -34.2671 709.506 -34.5824C698.956 -34.9098 688.831 -32.2905 678.997 -28.9315C652.829 -20.0066 634.834 -2.58118 625.861 23.757C622.126 34.7192 621.35 45.9602 624.697 57.1406C629.693 73.8384 641.758 83.8669 657.231 90.3544C672.51 96.7571 688.564 96.6115 704.655 95.3989C716.49 94.5137 728.095 92.04 739.711 89.6996C746.138 88.4142 752.613 87.0318 759.222 87.335C773.712 88.0019 781.158 97.7878 777.556 111.842C773.349 128.261 762.908 139.211 747.084 145.092C742.561 146.778 738.329 147.093 733.442 145.165C720.116 139.902 705.977 147.978 703.467 162.021C701.757 171.564 705.383 179.228 713.216 184.818C725.294 193.44 738.778 194.119 752.504 190.554C789.306 180.974 812.697 157.631 821.961 120.719C825.915 104.954 824.059 89.3843 816.153 75.0632C804.379 53.721 785.572 43.4986 761.623 42.1404C750.043 41.4856 738.741 43.7047 727.464 45.9723C715.666 48.3612 703.843 50.6167 690.25 50.7622Z" fill="#28367D" fill-opacity="0.57"/>
<path d="M208.136 -123.371C217.679 -124.535 218.37 -124.075 220.553 -115.428C224.481 -99.822 218.515 -83.6941 205.371 -74.3569C201.479 -71.5921 197.174 -69.5913 192.857 -67.6026C164.507 -54.5668 136.144 -41.5311 107.794 -28.4954C106.799 -28.0346 105.805 -27.5738 104.823 -27.1009C100.845 -25.1849 100.785 -25.1607 102.216 -21.0741C109.285 -0.932434 116.391 19.2093 123.497 39.3388C135.283 72.7224 147.045 106.118 158.892 139.477C162.081 148.463 163.561 157.533 160.59 166.834C155.606 182.404 144.923 191.936 128.832 194.106C112.511 196.301 99.5844 189.789 90.5991 175.868C88.4164 172.473 87.0583 168.677 85.7245 164.882C67.9357 114.461 50.1228 64.04 32.3098 13.6191C31.461 11.2302 30.5637 8.86557 29.7391 6.58583C27.2411 6.39182 25.5799 7.6772 23.7974 8.47752C8.47023 15.3289 -6.83269 22.2287 -22.1356 29.1528C-28.3683 31.9782 -34.8193 33.7729 -41.7432 33.3848C-43.3317 33.3 -45.3204 33.6516 -45.7933 31.5053C-46.2298 29.5651 -46.4117 27.4794 -45.4659 25.5998C-45.0172 24.7025 -43.938 24.7025 -43.0164 24.7995C-34.8193 25.6725 -27.665 22.5319 -20.4744 19.2457C-4.04373 11.7395 12.4475 4.37886 28.9267 -3.04241C30.0907 -3.56384 31.2548 -4.08526 32.4189 -4.61881C33.8983 -5.29788 34.8562 -4.84922 35.3776 -3.33344C35.7899 -2.12081 36.2265 -0.920319 36.6509 0.280182C55.5431 53.7933 74.4352 107.306 93.3396 160.807C94.0065 162.699 94.6855 164.591 95.4616 166.434C102.119 182.162 118.27 189.741 133.561 184.332C148.864 178.912 156.976 162.772 151.944 146.535C148.112 134.166 143.541 122.028 139.236 109.817C123.521 65.2405 107.782 20.6765 92.0542 -23.8874C91.8117 -24.5786 91.557 -25.2577 91.3388 -25.961C90.1989 -29.514 90.1626 -29.5989 93.6669 -31.2238C106.411 -37.1414 119.18 -43.0105 131.936 -48.8796C151.653 -57.9622 171.382 -67.0326 191.111 -76.1031C193.924 -77.4006 196.749 -78.6981 199.32 -80.4564C212.525 -89.5147 216.648 -105.267 209.579 -119.6C208.997 -120.679 207.978 -121.613 208.136 -123.371Z" fill="#28367D" fill-opacity="0.57"/>
<path d="M889.746 390.624C877.45 390.612 866.804 383.421 862.426 372.447C858.121 361.679 860.716 349.31 868.998 341.088C871.339 338.76 874.043 336.881 876.747 335.013C889.382 326.331 902.029 317.673 914.64 308.954C915.889 308.093 918.108 307.608 917.587 305.522C917.078 303.436 916.229 301.302 914.992 299.58C914.07 298.307 912.664 299.702 911.609 300.235C901.508 305.328 891.443 310.482 881.367 315.599C878.275 317.163 875.158 318.643 871.751 319.455C858.534 322.62 845.135 316.569 838.975 304.588C832.706 292.389 835.713 277.729 846.396 268.937C848.493 267.203 850.846 265.76 853.186 264.341C864.597 257.466 876.031 250.651 887.454 243.8C892.935 240.513 892.401 241.217 890.267 235.323C889.649 233.613 888.836 231.952 888.315 230.218C887.515 227.575 886.29 226.859 883.501 227.987C875.049 231.394 866.488 234.523 857.964 237.749C849.439 240.962 840.951 244.297 832.354 247.316C821.829 251.003 812.079 249.099 803.676 241.908C787.597 228.169 791.259 202.764 810.636 193.657C816.554 190.868 822.835 188.843 828.971 186.503C849.573 178.645 870.199 170.836 890.777 162.917C897.252 160.432 903.86 159.377 910.615 161.038C920.303 163.427 927.203 169.417 930.853 178.669C937.546 195.646 945.537 212.041 952.691 228.811C964.369 256.144 976.337 283.367 988.184 310.639C989.203 312.98 990.27 315.308 991.179 317.685C996.975 333 991.022 348.304 976.252 355.422C968.37 359.217 960.258 362.54 952.243 366.044C936.043 373.126 919.83 380.208 903.618 387.277C899.034 389.242 894.39 390.83 889.746 390.624ZM918.569 290.013C920.473 294.815 922.425 299.702 924.341 304.601C925.99 308.82 925.99 308.869 922.074 311.561C908.238 321.08 894.39 330.587 880.542 340.094C877.984 341.852 875.401 343.574 873.255 345.854C863.251 356.452 865.506 373.466 877.959 380.814C884.944 384.937 892.171 384.973 899.495 381.808C910.372 377.116 921.237 372.362 932.09 367.621C945.452 361.776 958.888 356.076 972.166 350.038C985.128 344.144 989.87 331.775 984.546 318.606C983.309 315.563 981.927 312.58 980.618 309.572C962.174 267.07 943.73 224.567 925.311 182.053C922.91 176.511 919.454 171.964 913.986 169.162C907.365 165.779 900.562 165.998 893.82 168.544C867.895 178.342 842.006 188.213 816.117 198.12C814.092 198.896 812.104 199.915 810.297 201.115C802.548 206.245 798.826 215.363 800.632 224.495C802.379 233.347 809.63 240.125 818.894 241.932C824.193 242.963 829.019 241.641 833.833 239.81C851.392 233.153 868.926 226.447 886.484 219.802C890.631 218.225 890.692 218.274 892.304 222.421C894.548 228.205 896.658 234.038 899.01 239.774C900.077 242.369 899.835 243.897 897.155 245.424C888.291 250.505 879.584 255.865 870.829 261.128C864.572 264.887 858.17 268.44 852.156 272.539C844.249 277.935 840.745 287.212 842.928 296.015C845.317 305.668 851.525 311.355 861.286 313.295C866.998 314.435 872.127 312.786 877.086 310.288C888.982 304.297 900.817 298.198 912.712 292.22C914.458 291.359 916.047 289.964 918.569 290.013Z" fill="#28367D" fill-opacity="0.57"/>
<path d="M1012.28 125.896C1009.28 120.585 1006.52 115.662 1003.73 110.75C997.254 99.3154 990.779 87.8804 984.292 76.4453C980.775 70.2367 978.908 63.6764 980.035 56.4976C981.879 44.7837 988.439 36.7925 999.594 32.9849C1010.63 29.2136 1020.44 31.9299 1028.95 39.7028C1031.4 41.934 1033.24 44.6624 1035.06 47.4151C1060.38 85.8311 1085.68 124.271 1111.06 162.651C1115.72 169.708 1118.95 177.093 1117.62 185.763C1115.75 197.938 1108.92 206.208 1097.16 209.713C1085.4 213.217 1075.13 210.004 1066.92 200.885C1062.75 196.253 1059.84 190.699 1056.34 185.569C1054.09 182.247 1051.85 178.912 1049.71 175.505C1048.56 173.686 1047.43 172.946 1045.29 174.183C1037.38 178.73 1029.41 183.193 1021.42 187.607C1019.48 188.686 1019.46 189.802 1020.57 191.548C1023.92 196.774 1027.21 202.049 1030.37 207.385C1034.64 214.575 1036.38 222.239 1034.15 230.509C1031.24 241.265 1024.42 248.359 1013.71 251.354C1002.94 254.362 993.519 251.451 985.468 243.872C983.188 241.738 981.442 239.155 979.72 236.572C956.608 201.94 933.52 167.295 910.384 132.687C906.455 126.818 903.484 120.706 903.521 113.418C903.581 101.486 910.627 90.8635 921.613 86.4252C932.381 82.0719 944.761 84.6063 953.019 92.8521C955.226 95.0591 957.02 97.5814 958.754 100.176C966.964 112.485 975.221 124.756 983.406 137.064C986.026 141.005 985.783 140.872 989.675 138.665C997.097 134.421 1004.54 130.249 1012.28 125.896ZM1021.11 128.237C1009.68 134.651 998.879 140.714 988.075 146.778C983.891 149.13 984.11 149.773 980.921 144.983C971.923 131.462 962.889 117.953 953.868 104.445C952.243 102.02 950.679 99.5337 948.544 97.5086C942.057 91.3 934.345 89.2506 925.82 91.8335C917.466 94.3679 912.324 100.334 910.493 108.871C908.88 116.365 911.609 122.804 915.707 128.928C939.062 163.803 962.368 198.726 985.662 233.638C987.093 235.772 988.621 237.809 990.5 239.556C1003.28 251.451 1023.48 245.388 1027.75 228.448C1029.48 221.56 1027.71 215.449 1024.2 209.64C1020.12 202.934 1016.05 196.216 1011.76 189.656C1010.16 187.207 1010.5 186.042 1013.03 184.648C1024.23 178.512 1035.32 172.182 1046.49 165.986C1049.86 164.118 1049.99 164.154 1052.09 167.307C1057.36 175.202 1062.56 183.132 1067.78 191.063C1069.28 193.355 1070.81 195.622 1072.76 197.574C1079.7 204.474 1089.81 206.257 1098.52 202.085C1107.02 198.011 1111.84 189.268 1111.06 179.664C1110.62 174.353 1108.1 169.975 1105.27 165.67C1080.04 127.436 1054.84 89.1779 1029.59 50.9438C1028.19 48.8217 1026.72 46.6754 1024.96 44.8565C1013.04 32.5604 992.477 37.2897 987.335 53.4903C985.31 59.9051 986.098 66.1501 989.336 72.0193C993.313 79.2101 997.4 86.3282 1001.44 93.4706C1007.91 104.894 1014.36 116.316 1021.11 128.237Z" fill="#28367D" fill-opacity="0.57"/>
<path d="M1185.95 146.317C1194.63 138.629 1202.81 131.378 1211.01 124.126C1213.75 121.701 1216.42 119.203 1219.24 116.899C1232.31 106.24 1250.05 107.392 1260.54 119.518C1271.09 131.705 1269.87 149.361 1257.35 160.772C1244.67 172.34 1231.73 183.618 1218.92 195.028C1187.25 223.173 1155.59 251.318 1123.92 279.451C1121.74 281.391 1119.52 283.32 1117.11 284.932C1104.82 293.202 1088.42 291.08 1078.85 280.106C1069.32 269.168 1069.29 253.162 1078.89 241.993C1080.9 239.653 1083.2 237.531 1085.51 235.457C1102.71 219.911 1119.94 204.39 1137.17 188.868C1138.12 188.007 1139.03 187.11 1140.02 186.31C1141.5 185.133 1141.41 183.957 1140.27 182.599C1139.33 181.483 1138.52 180.259 1137.65 179.094C1112.84 145.905 1088.04 112.691 1063.19 79.5258C1058.7 73.5233 1055.58 67.0964 1055.82 59.3841C1056.21 47.2942 1061.82 38.3572 1072.79 33.4218C1083.71 28.4985 1094.15 30.0871 1103.55 37.6538C1106.28 39.8487 1108.36 42.6256 1110.45 45.4146C1133.94 76.858 1157.44 108.289 1180.95 139.733C1182.48 141.758 1184.02 143.771 1185.95 146.317ZM1099.71 283.307C1107.44 283.235 1112.81 280.47 1117.62 276.201C1162.23 236.537 1206.86 196.896 1251.49 157.243C1253.53 155.424 1255.46 153.484 1257 151.192C1266.62 136.883 1257.92 118.087 1240.79 116.208C1233.62 115.419 1227.56 117.942 1222.26 122.647C1211.35 132.348 1200.42 142.037 1189.47 151.713C1184.6 156.018 1185.42 156.455 1181.12 150.695C1156.2 117.36 1131.31 84.0246 1106.37 50.7017C1104.52 48.2279 1102.64 45.7057 1100.43 43.5593C1093.8 37.1082 1083.8 35.4105 1075.55 39.109C1067.17 42.8681 1062.13 51.1989 1062.41 60.6695C1062.59 66.6235 1065.33 71.4618 1068.78 76.0698C1084.32 96.8178 1099.83 117.578 1115.35 138.338C1126.27 152.962 1137.21 167.562 1148.12 182.199C1150.43 185.291 1150.39 185.339 1147.71 187.886C1147.06 188.517 1146.37 189.111 1145.69 189.729C1127.12 206.488 1108.55 223.222 1089.99 240.005C1087.83 241.957 1085.57 243.873 1083.76 246.14C1077.76 253.659 1076.46 262.014 1080.67 270.733C1084.66 279.027 1091.73 282.956 1099.71 283.307Z" fill="#28367D" fill-opacity="0.57"/>
<path d="M898.148 704.501C897.651 716.409 892.437 725.625 881.693 730.948C870.792 736.356 860.061 735.216 850.214 727.989C847.741 726.17 845.594 723.854 843.485 721.587C832.147 709.436 820.785 697.31 809.653 684.977C807.022 682.055 804.718 681.085 800.753 682.103C780.794 687.257 760.774 692.18 740.717 696.934C737.177 697.771 735.503 699.395 734.739 702.864C733.612 708.017 732.326 713.183 730.253 718.07C725.269 729.832 713.264 737.423 701.163 736.538C688.042 735.592 677.372 727.043 673.94 714.699C672.291 708.733 672.715 702.791 674.255 696.849C680.973 671.069 687.654 645.276 694.36 619.496C702.678 587.531 710.997 555.566 719.352 523.613C720.043 520.97 720.746 518.302 721.813 515.792C730.313 495.759 756.517 491.224 771.263 507.219C773.106 509.22 774.706 511.475 776.234 513.743C814.443 570.554 852.628 627.39 890.848 684.189C895.008 690.374 898.306 696.776 898.148 704.501ZM679.663 706.016C679.433 721.441 692.759 732.609 707.747 729.287C716.478 727.347 722.225 721.756 724.954 713.304C726.809 707.581 728.288 701.736 729.78 695.903C730.398 693.49 731.574 692.459 734.121 691.865C756.651 686.505 779.181 681.109 801.602 675.289C806.61 673.991 809.544 675.082 812.854 678.793C824.301 691.586 836.088 704.076 847.765 716.651C849.499 718.519 851.245 720.422 853.197 722.047C861.795 729.19 874.018 729.396 882.542 722.678C891.2 715.851 893.856 704.173 888.896 694.048C887.623 691.441 885.937 689.015 884.313 686.59C846.637 630.518 808.95 574.459 771.25 518.399C770.232 516.883 769.225 515.355 768.086 513.924C762.253 506.588 754.614 503.253 745.386 504.83C736.146 506.418 730.144 512.203 727.052 521.006C726.688 522.037 726.36 523.092 726.094 524.147C710.985 582.244 695.9 640.353 680.779 698.45C680.124 700.948 679.736 703.446 679.663 706.016Z" fill="#28367D" fill-opacity="0.57"/>
<path d="M926.633 -35.6982C925.663 -8.51112 924.705 18.6759 923.698 45.863C923.565 49.319 923.371 52.7628 922.365 56.1461C916.69 75.1479 894.56 83.1148 878.178 71.9465C875.934 70.4187 873.861 68.5755 871.884 66.6959C823.405 20.701 774.962 -25.3424 726.458 -71.3251C719.692 -77.7399 715.145 -85.052 715.06 -94.7045C714.878 -113.888 733.964 -129.834 755.56 -121.431C758.653 -120.23 761.345 -118.326 764.036 -116.459C777.557 -107.122 791.102 -97.8452 804.537 -88.3867C807.229 -86.4829 809.339 -86.2647 812.383 -87.7926C830.28 -96.863 848.275 -105.727 866.282 -114.579C869.035 -115.925 871.399 -117.162 871.048 -120.897C870.769 -123.844 873.012 -123.82 875.146 -123.808C877.644 -123.783 877.535 -122.11 877.462 -120.4C877.45 -120.036 877.377 -119.66 877.426 -119.309C878.081 -114.507 876.007 -112.106 871.496 -109.971C851.561 -100.513 831.857 -90.5816 812.164 -80.6259C809.012 -79.0374 806.805 -79.0132 803.822 -81.1231C789.077 -91.5638 774.113 -101.701 759.283 -112.021C754.505 -115.343 749.413 -117.502 743.495 -117.332C726.604 -116.847 716.394 -99.0336 724.433 -84.0941C726.107 -80.9897 728.508 -78.5038 731.03 -76.1029C779.497 -30.0959 827.976 15.9233 876.42 61.9545C879.766 65.1316 883.319 67.957 887.806 69.303C901.544 73.4381 915.295 64.2585 916.847 49.9253C917.175 46.8452 917.332 43.7409 917.441 40.6366C918.727 2.8633 919.976 -34.91 921.285 -72.6833C921.831 -88.3746 922.474 -104.066 923.104 -119.757C923.177 -121.455 922.668 -123.638 925.505 -123.783C929.41 -123.989 929.883 -123.056 929.737 -120C929.155 -107.959 928.779 -95.9171 928.331 -83.8758C927.736 -67.8206 927.154 -51.7655 926.572 -35.7103C926.584 -35.6982 926.609 -35.6982 926.633 -35.6982Z" fill="#28367D" fill-opacity="0.57"/>
<path d="M1020.65 -111.063C1014.4 -114.895 1008.22 -118.69 1001.19 -122.995C1005.91 -124.244 1009.99 -124.741 1013.44 -122.983C1019.41 -119.951 1024.99 -116.132 1030.71 -112.639C1030.12 -110.347 1028.51 -109.341 1027.28 -108.104C1005.34 -85.8888 983.394 -63.6735 961.422 -41.5067C956.935 -36.9836 953.383 -31.9876 952.885 -25.4394C952.146 -15.7991 955.856 -8.20802 964.32 -3.49091C972.796 1.23833 981.199 0.24398 988.996 -5.35835C991.203 -6.94689 993.119 -8.94772 995.059 -10.8758C1017.2 -32.8849 1039.32 -54.9183 1061.47 -76.9154C1062.72 -78.1522 1063.67 -79.8257 1065.91 -80.3471C1067.84 -75.824 1068.54 -70.9492 1069.96 -66.2928C1071.19 -62.279 1071.99 -58.1318 1073.37 -54.1908C1077.53 -42.3677 1089.39 -36.0984 1100.88 -39.421C1112.46 -42.7678 1119.43 -54.2393 1116.51 -66.4019C1112.56 -82.8936 1108.02 -99.2398 1103.73 -115.647C1103.37 -117.053 1102.91 -118.448 1102.63 -119.879C1102.37 -121.164 1101.11 -122.704 1103.2 -123.601C1105.25 -124.487 1107.96 -123.577 1108.73 -121.782C1109.08 -120.946 1109.3 -120.048 1109.53 -119.175C1113.83 -102.963 1118.14 -86.7376 1122.41 -70.5248C1123.72 -65.5409 1124.38 -60.5085 1123.32 -55.367C1120.55 -42.1615 1110.24 -32.8607 1096.53 -31.9391C1083.08 -31.0296 1071.74 -39.2391 1067.56 -51.0016C1066.03 -55.2821 1065.01 -59.7446 1063.76 -64.1343C1063.43 -65.3469 1063.45 -66.7051 1062.15 -67.5418C1060.1 -66.9961 1059.01 -65.1893 1057.63 -63.819C1038.46 -44.7808 1019.31 -25.7062 1000.16 -6.63161C997.582 -4.06084 995.023 -1.44157 992.016 0.668396C980.169 8.96275 964.514 7.62886 954.45 -2.56932C944.555 -12.5856 943.354 -28.0223 951.527 -39.7363C953.528 -42.5981 955.99 -45.0354 958.427 -47.5092C977.938 -67.2386 997.46 -86.968 1016.96 -106.71C1018.24 -107.983 1019.71 -109.098 1020.65 -111.063Z" fill="#28367D" fill-opacity="0.57"/>
<path d="M1219.4 -123.177C1217.47 -116.435 1215.75 -109.911 1215.36 -103.144C1213.33 -67.1294 1226.72 -38.281 1257.1 -18.7214C1288.01 1.17782 1326.84 -9.54179 1344.77 -41.7006C1350.71 -52.3596 1353.74 -64.0129 1356.28 -75.8118C1358.85 -87.7682 1361.35 -99.749 1366.19 -111.075C1367.41 -113.925 1368.65 -116.786 1370.14 -119.491C1372.78 -124.317 1373.68 -124.571 1380.01 -123.019C1369.79 -109.244 1366.42 -92.9704 1362.85 -76.7697C1360.57 -66.426 1358.24 -56.0823 1353.94 -46.345C1345.15 -26.4822 1331.19 -12.0155 1310.02 -5.63713C1288.26 0.923172 1267.7 -2.87235 1249.62 -15.993C1219.61 -37.7717 1206.34 -67.8084 1209.05 -104.83C1209.4 -109.571 1210.27 -114.24 1211.49 -118.836C1212.55 -122.813 1212.38 -124.729 1219.4 -123.177Z" fill="#28367D" fill-opacity="0.57"/>
<path d="M1346.49 72.0799C1356.59 67.7872 1366.11 63.7249 1375.64 59.6868C1380.49 57.6254 1385.36 55.576 1390.22 53.5267C1392.06 52.7506 1393.35 52.8234 1393.47 55.3335C1394.09 68.4178 1394.78 81.5141 1395.41 94.5983C1395.42 94.9136 1395.18 95.2531 1395.04 95.5805C1391.26 95.0712 1353.88 77.1001 1346.49 72.0799ZM1362.23 72.2011C1362.26 72.6377 1362.27 73.0864 1362.29 73.5229C1370.72 77.6458 1379.16 81.7687 1388.35 86.2676C1388.02 77.6216 1388.01 69.9335 1386.86 61.724C1378.16 65.4347 1370.2 68.8179 1362.23 72.2011Z" fill="#28367D" fill-opacity="0.57"/>
<path d="M402.174 383.082C382.13 386.295 362.813 389.387 342.405 392.661C351.075 368.93 359.394 346.133 368.173 322.099C379.789 342.932 390.763 362.612 402.174 383.082ZM355.55 381.59C367.082 379.917 377.595 378.377 388.605 376.145C382.372 364.965 376.455 354.354 369.834 342.471C364.862 356.076 360.352 368.421 355.55 381.59Z" fill="#28367D" fill-opacity="0.57"/>
<path d="M790.253 630.118C774.853 633.901 760.447 637.454 744.805 641.298C749.946 622.442 754.796 604.677 760.035 585.469C770.633 600.675 779.994 615.045 790.253 630.118ZM754.19 632.009C763.103 629.79 770.972 628.25 778.672 625.679C774.889 617.882 765.455 604.543 762.254 602.506C759.659 612.013 757.076 621.435 754.19 632.009Z" fill="#28367D" fill-opacity="0.57"/>
</g>
</g>
</svg>
