<svg width="20" height="25" viewBox="0 0 20 25" fill="none" xmlns="http://www.w3.org/2000/svg">
<rect width="20" height="24.39" fill="white"/>
<path d="M11.4844 9.99361C11.4844 9.17336 10.8203 8.50928 9.99996 8.50928C9.17963 8.50928 8.51562 9.17336 8.51562 9.99361C8.51562 10.8139 9.17963 11.478 9.99996 11.478C10.8203 11.478 11.4844 10.8139 11.4844 9.99361Z" fill="black"/>
<path d="M11.4844 3.98462C11.4844 3.16431 10.8203 2.50024 9.99996 2.50024C9.17963 2.50024 8.51562 3.16431 8.51562 3.98462C8.51562 4.80494 9.17963 5.46899 9.99996 5.46899C10.8203 5.46899 11.4844 4.80494 11.4844 3.98462Z" fill="black"/>
<path d="M11.4844 16.0159C11.4844 15.1956 10.8204 14.5315 10 14.5315C9.17971 14.5315 8.51562 15.1956 8.51562 16.0159C8.51562 16.8362 9.17971 17.5002 10 17.5002C10.8204 17.5002 11.4844 16.8362 11.4844 16.0159Z" fill="black"/>
</svg>
