<svg width="30" height="20" viewBox="0 0 30 20" fill="none" xmlns="http://www.w3.org/2000/svg">
<g clip-path="url(#clip0_23_554)">
<g clip-path="url(#clip1_23_554)">
<path d="M21.8182 1.81812H8.18182C3.66312 1.81812 0 5.48124 0 9.99993C0 14.5186 3.66312 18.1818 8.18182 18.1818H21.8182C26.3369 18.1818 30 14.5186 30 9.99993C30 5.48124 26.3369 1.81812 21.8182 1.81812Z" fill="#FF3033"/>
<path d="M6.57849 13.6362V5.78465H7.73438L10.4404 9.85957H10.4829L13.1943 5.78465H14.3448V13.6362H12.8214V10.5787L12.8534 8.65041H12.8107L10.6321 12.0488H10.2912L8.11258 8.65041H8.06996L8.10193 10.5787V13.6362H6.57849ZM18.2599 13.7215C17.7166 13.7215 17.223 13.5971 16.7791 13.3486C16.3388 13.0964 15.9872 12.7484 15.7245 12.3046C15.4652 11.8607 15.3356 11.3493 15.3356 10.7704C15.3356 10.1916 15.4652 9.68379 15.7245 9.24701C15.9872 8.80666 16.3388 8.46398 16.7791 8.21895C17.223 7.97037 17.7166 7.84608 18.2599 7.84608C18.8139 7.84608 19.3111 7.97037 19.7515 8.21895C20.1917 8.46398 20.5398 8.80666 20.7955 9.24701C21.0547 9.68379 21.1843 10.1916 21.1843 10.7704C21.1843 11.3493 21.0547 11.8607 20.7955 12.3046C20.5362 12.7484 20.1865 13.0964 19.7461 13.3486C19.3057 13.5971 18.8104 13.7215 18.2599 13.7215ZM18.2599 12.4484C18.5476 12.4484 18.805 12.3791 19.0323 12.2406C19.2596 12.0986 19.4389 11.9015 19.5703 11.6494C19.7017 11.3972 19.7674 11.1042 19.7674 10.7704C19.7674 10.4437 19.7035 10.1579 19.5756 9.91285C19.4478 9.66426 19.2703 9.47073 19.043 9.33223C18.8193 9.19019 18.56 9.11916 18.2653 9.11916C17.9776 9.11916 17.7202 9.18841 17.4929 9.32691C17.2656 9.46185 17.0863 9.65361 16.9549 9.90219C16.8236 10.1508 16.7578 10.4402 16.7578 10.7704C16.7578 11.1042 16.8236 11.3972 16.9549 11.6494C17.0863 11.9015 17.2638 12.0986 17.4876 12.2406C17.7148 12.3791 17.9723 12.4484 18.2599 12.4484ZM19.7567 9.17775L19.7355 8.22428C20.119 8.22073 20.3977 8.13373 20.5717 7.96327C20.7457 7.79282 20.8327 7.53714 20.8327 7.19623C20.8327 7.10745 20.8275 7.01689 20.8167 6.92456C20.8096 6.83223 20.7955 6.7399 20.7742 6.64757L21.8448 6.45581C21.8875 6.57655 21.9158 6.71682 21.93 6.87662C21.9443 7.03287 21.9514 7.15716 21.9514 7.24949C21.9514 7.65787 21.8448 8.01121 21.6317 8.3095C21.4223 8.60425 21.1488 8.82797 20.8115 8.98067C20.4741 9.13337 20.1226 9.19906 19.7567 9.17775ZM18.2493 7.45191L17.6155 6.90325L19.1229 4.93237L19.9965 5.76866L18.2493 7.45191ZM22.1112 13.6362V7.93131H23.5814V13.6362H22.1112ZM22.8409 7.20687C22.5816 7.20687 22.3616 7.11632 22.1804 6.93522C21.9993 6.75055 21.9087 6.52861 21.9087 6.26937C21.9087 6.00659 21.9993 5.78642 22.1804 5.60886C22.3616 5.42775 22.5816 5.3372 22.8409 5.3372C23.1037 5.3372 23.3238 5.42775 23.5015 5.60886C23.6826 5.78642 23.7731 6.00659 23.7731 6.26937C23.7731 6.52861 23.6826 6.75055 23.5015 6.93522C23.3238 7.11632 23.1037 7.20687 22.8409 7.20687Z" fill="white"/>
</g>
</g>
<defs>
<clipPath id="clip0_23_554">
<rect width="30" height="20" fill="white"/>
</clipPath>
<clipPath id="clip1_23_554">
<rect width="30" height="16.3636" fill="white" transform="translate(0 1.81812)"/>
</clipPath>
</defs>
</svg>
