<svg width="16" height="16" viewBox="0 0 16 16" fill="none" xmlns="http://www.w3.org/2000/svg">
<path fill-rule="evenodd" clip-rule="evenodd" d="M11.7735 1.33325C13.371 1.33336 14.6664 2.62833 14.6667 4.22583V11.7734C14.6666 13.371 13.3711 14.6665 11.7735 14.6666H4.22595C2.62845 14.6663 1.33348 13.3709 1.33337 11.7734V4.22583C1.33363 2.62842 2.62854 1.33351 4.22595 1.33325H11.7735ZM7.21231 5.19328C6.98577 5.07837 6.69704 5.02912 6.42191 5.15747C6.08302 5.31571 5.94739 5.65445 5.95121 5.97713L5.96293 9.99212V10.0065L5.96358 10.0201L5.97335 10.1249C6.00659 10.3761 6.11509 10.6705 6.41019 10.8281C6.74231 11.0054 7.08824 10.889 7.31257 10.7649L7.33531 10.7519L7.35684 10.7375L10.0996 8.81892C10.3158 8.67505 10.5806 8.42445 10.5801 8.05005C10.5795 7.67519 10.3154 7.43379 10.0951 7.29872L7.33471 5.26619L7.32037 5.25513L7.30471 5.24601L7.21231 5.19328Z" fill="white"/>
</svg>
